<?xml version="1.0" encoding="UTF-8" standalone="no"?>
<!-- Created with Inkscape (http://www.inkscape.org/) -->

<svg
   width="189.51205mm"
   height="77.192665mm"
   viewBox="0 0 189.51205 77.192665"
   version="1.1"
   id="svg1"
   sodipodi:docname="Aufteilung des Einzelhandelspreisniveaus für Haushaltskunden für das Abnahmeband ab einschließlich 2.500 bis 5.000 kWh pro Jahr zum 1. April 2023.svg"
   inkscape:version="1.3.2 (091e20e, 2023-11-25, custom)"
   xmlns:inkscape="http://www.inkscape.org/namespaces/inkscape"
   xmlns:sodipodi="http://sodipodi.sourceforge.net/DTD/sodipodi-0.dtd"
   xmlns="http://www.w3.org/2000/svg"
   xmlns:svg="http://www.w3.org/2000/svg"
   xmlns:rdf="http://www.w3.org/1999/02/22-rdf-syntax-ns#"
   xmlns:cc="http://creativecommons.org/ns#"
   xmlns:dc="http://purl.org/dc/elements/1.1/">
  <title
     id="title1348">Aufteilung des Einzelhandelspreisniveaus für Haushaltskunden für das Abnahmeband ab einschließlich 2.500 bis 5.000 kWh pro Jahr zum 1. April 2023 </title>
  <sodipodi:namedview
     id="namedview1"
     pagecolor="#ffffff"
     bordercolor="#999999"
     borderopacity="1"
     inkscape:showpageshadow="2"
     inkscape:pageopacity="0"
     inkscape:pagecheckerboard="0"
     inkscape:deskcolor="#d1d1d1"
     inkscape:document-units="mm"
     showgrid="true"
     inkscape:zoom="1.0431888"
     inkscape:cx="396.38079"
     inkscape:cy="151.93798"
     inkscape:window-width="2560"
     inkscape:window-height="1369"
     inkscape:window-x="-8"
     inkscape:window-y="-8"
     inkscape:window-maximized="1"
     inkscape:current-layer="svg1">
    <inkscape:grid
       id="grid1"
       units="mm"
       originx="-13.247253"
       originy="-29.617171"
       spacingx="0.99999998"
       spacingy="1"
       empcolor="#0099e5"
       empopacity="0.30196078"
       color="#0099e5"
       opacity="0.14901961"
       empspacing="5"
       dotted="false"
       gridanglex="30"
       gridanglez="30"
       visible="true" />
  </sodipodi:namedview>
  <defs
     id="defs1">
    <inkscape:path-effect
       effect="spiro"
       id="path-effect23"
       is_visible="true"
       lpeversion="1" />
    <inkscape:path-effect
       effect="spiro"
       id="path-effect22"
       is_visible="true"
       lpeversion="1" />
    <inkscape:path-effect
       effect="spiro"
       id="path-effect21"
       is_visible="true"
       lpeversion="1" />
    <inkscape:path-effect
       effect="spiro"
       id="path-effect20"
       is_visible="true"
       lpeversion="1" />
    <inkscape:path-effect
       effect="spiro"
       id="path-effect19"
       is_visible="true"
       lpeversion="1" />
    <inkscape:path-effect
       effect="spiro"
       id="path-effect18"
       is_visible="true"
       lpeversion="1" />
    <inkscape:path-effect
       effect="spiro"
       id="path-effect17"
       is_visible="true"
       lpeversion="1" />
    <inkscape:path-effect
       effect="spiro"
       id="path-effect16"
       is_visible="true"
       lpeversion="1" />
    <inkscape:path-effect
       effect="spiro"
       id="path-effect15"
       is_visible="true"
       lpeversion="1" />
    <inkscape:path-effect
       effect="spiro"
       id="path-effect14"
       is_visible="true"
       lpeversion="1" />
    <inkscape:path-effect
       effect="spiro"
       id="path-effect13"
       is_visible="true"
       lpeversion="1" />
    <inkscape:path-effect
       effect="spiro"
       id="path-effect12"
       is_visible="true"
       lpeversion="1" />
    <inkscape:path-effect
       effect="spiro"
       id="path-effect11"
       is_visible="true"
       lpeversion="1" />
    <clipPath
       clipPathUnits="userSpaceOnUse"
       id="clipPath2">
      <g
         inkscape:label="Clip"
         id="use2">
        <ellipse
           style="fill:none;stroke:#000000;stroke-width:0.2;stroke-linecap:square;stroke-linejoin:bevel"
           id="ellipse22"
           cx="73.015182"
           cy="218.62639"
           rx="43.015179"
           ry="43.626389" />
      </g>
    </clipPath>
    <clipPath
       clipPathUnits="userSpaceOnUse"
       id="clipPath4">
      <g
         inkscape:label="Clip"
         id="use4">
        <path
           id="path4"
           style="fill:none;stroke:#000000;stroke-width:0.2;stroke-linecap:square;stroke-linejoin:bevel"
           d="M 218.01518,123.62639 A 43.015179,43.626389 0 0 1 175,167.25278 43.015179,43.626389 0 0 1 131.98482,123.62639 43.015179,43.626389 0 0 1 175,79.999998 43.015179,43.626389 0 0 1 218.01518,123.62639 Z"
           inkscape:label="ellipse15" />
      </g>
    </clipPath>
  </defs>
  <g
     inkscape:label="Ebene 1"
     inkscape:groupmode="layer"
     id="layer1"
     transform="translate(-13.247253,-29.61717)" />
  <g
     inkscape:groupmode="layer"
     inkscape:label="Chart-Layer: Vertrieb und Marge:11.6,Energiebeschaffung:40.6,Entgelt für Messung und Messstellenbetrieb:0.8,Nettonetzentgelt:19.9,Umsatzsteuer:16,Stromsteuer:4.5,Konzessionsabgabe:3.6,other:3"
     id="g56"
     transform="translate(-13.247253,-29.61717)" />
  <g
     inkscape:groupmode="layer"
     inkscape:label="Chart-Layer: Vertrieb und Marge:11.6,Energiebeschaffung:40.6,Entgelt für Messung und Messstellenbetrieb:0.8,Nettonetzentgelt:19.9,Umsatzsteuer:16,Stromsteuer:4.5,Konzessionsabgabe:3.6,other:3"
     id="g446"
     transform="translate(-13.247253,-29.61717)" />
  <g
     inkscape:groupmode="layer"
     inkscape:label="Chart-Layer: Vertrieb und Marge:11.6,Energiebeschaffung:40.6,Entgelt für Messung und Messstellenbetrieb:0.8,Nettonetzentgelt:19.9,Umsatzsteuer:16,Stromsteuer:4.5,Konzessionsabgabe:3.6,other:3"
     id="g462"
     transform="translate(-13.247253,-29.61717)" />
  <g
     inkscape:groupmode="layer"
     inkscape:label="Chart-Layer: Vertrieb und Marge:11.6,Energiebeschaffung:40.6,Entgelt für Messung und Messstellenbetrieb:0.8,Nettonetzentgelt:19.9,Umsatzsteuer:16,Stromsteuer:4.5,Konzessionsabgabe:3.6,other:3"
     id="g478"
     transform="translate(-13.247253,-29.61717)" />
  <text
     xml:space="preserve"
     style="font-size:3.88056px;font-family:Charter;-inkscape-font-specification:Charter;fill:#000000;stroke:none;stroke-width:0.2;stroke-linecap:square;stroke-linejoin:bevel"
     x="76.752754"
     y="30.38283"
     id="text1338"><tspan
       sodipodi:role="line"
       id="tspan1338"
       style="fill:#000000;stroke-width:0.2"
       x="76.752754"
       y="30.38283" /></text>
  <metadata
     id="metadata1348">
    <rdf:RDF>
      <cc:Work
         rdf:about="">
        <dc:title>Aufteilung des Einzelhandelspreisniveaus für Haushaltskunden für das Abnahmeband ab einschließlich 2.500 bis 5.000 kWh pro Jahr zum 1. April 2023 </dc:title>
      </cc:Work>
    </rdf:RDF>
  </metadata>
  <g
     id="g23"
     transform="translate(-13.247253,-29.61717)">
    <g
       id="g1"
       transform="matrix(0.64601274,0,0,0.62956058,30.29797,-26.780679)">
      <path
         d="m 74.005819,144.1881 a 31.561493,31.561493 0 0 1 0.205672,-1.56115 l -18.159615,-3.46438 a 50,50 0 0 0 -0.280603,2.48873 z"
         style="fill:#611c73;fill-opacity:1"
         id="path979" />
      <path
         d="m 56.156779,138.23032 a 50,50 0 0 0 -0.104903,0.93225 l 18.159615,3.46438 A 31.561493,31.561493 0 0 1 100.88325,117.48068 L 98.462207,99.236837 a 50,50 0 0 0 -2.436027,0.274402 50,50 0 0 0 -4.672583,1.124481 50,50 0 0 0 -5.675623,1.98592 50,50 0 0 0 -4.34392,2.06913 50,50 0 0 0 -5.101498,3.20497 50,50 0 0 0 -3.804936,2.91042 50,50 0 0 0 -4.297928,4.29844 50,50 0 0 0 -3.077849,3.5848 50,50 0 0 0 -3.297473,5.24722 50,50 0 0 0 -2.212268,4.03851 50,50 0 0 0 -2.125452,6.07405 50,50 0 0 0 -1.259871,4.18114 z"
         style="fill:#00689d;fill-opacity:1"
         id="path976" />
      <path
         d="m 107.95413,198.16723 a 50,50 0 0 1 -3.15639,0.31006 50,50 0 0 0 0.20205,0.0227 50,50 0 0 0 2.95434,-0.3328 z"
         style="fill:#980101"
         id="path970" />
      <path
         d="m 138.79825,184.96752 a 50,50 0 0 0 3.32331,-3.32331 l -13.71544,-12.24576 a 31.561493,31.561493 0 0 1 -23.40633,10.66291 31.561493,31.561493 0 0 1 -31.561379,-31.56138 31.561493,31.561493 0 0 1 0.567408,-4.31188 l -18.234546,-2.5368 a 50,50 0 0 0 -0.412895,3.66593 50,50 0 0 0 -0.15813,4.96042 50,50 0 0 0 0.66921,5.9402 50,50 0 0 0 0.882633,4.83278 50,50 0 0 0 2.001945,5.72162 50,50 0 0 0 1.851567,4.46278 50,50 0 0 0 3.298507,5.24929 50,50 0 0 0 2.672188,3.85764 50,50 0 0 0 4.558378,4.5589 50,50 0 0 0 3.249414,3.04167 50,50 0 0 0 5.919535,3.71967 50,50 0 0 0 3.352767,2.00867 50,50 0 0 0 8.424809,2.94814 50,50 0 0 0 1.875338,0.63665 50,50 0 0 0 10.841201,1.22163 50,50 0 0 0 3.15639,-0.31006 50,50 0 0 0 7.68326,-0.86558 50,50 0 0 0 3.9951,-1.28209 50,50 0 0 0 6.32675,-2.21382 50,50 0 0 0 3.95738,-2.28203 50,50 0 0 0 5.35833,-3.36672 50,50 0 0 0 3.5233,-3.18947 z"
         style="fill:#b90f22;fill-opacity:1"
         id="path969" />
      <path
         d="m 142.29726,181.80079 -0.1757,-0.15658 a 50,50 0 0 1 -3.32331,3.32331 50,50 0 0 0 3.49901,-3.16673 z"
         style="fill:#980101"
         id="path968" />
      <path
         d="m 143.24759,180.51818 a 50,50 0 0 1 -1.12603,1.12603 l 0.1757,0.15658 a 50,50 0 0 0 0.95033,-1.28261 z"
         style="fill:#460101"
         id="path967" />
      <path
         d="m 154.99984,148.49998 h -18.43815 a 31.561493,31.561493 0 0 1 -8.15557,20.89847 l 13.71544,12.24576 a 50,50 0 0 0 1.12603,-1.12603 50,50 0 0 0 2.06292,-2.78381 50,50 0 0 0 3.69642,-5.88233 50,50 0 0 0 1.61488,-3.29747 50,50 0 0 0 2.35542,-6.73086 50,50 0 0 0 0.87178,-3.10885 50,50 0 0 0 1.15083,-10.21488 z"
         style="fill:#808080;fill-opacity:1"
         id="path966" />
      <path
         d="m 154.14821,139.49019 a 50,50 0 0 0 -0.0703,-0.35243 l -18.08675,3.45044 a 31.561493,31.561493 0 0 1 0.57051,5.91178 h 18.43815 a 50,50 0 0 0 -0.85163,-9.00979 z"
         style="fill:#999999;fill-opacity:1"
         id="path965" />
      <path
         d="m 154.11411,139.13104 -0.0362,0.007 a 50,50 0 0 1 0.0703,0.35243 50,50 0 0 0 -0.0341,-0.35915 z"
         style="fill:#fdd99b"
         id="path964" />
      <path
         d="m 154.01024,138.79721 a 50,50 0 0 1 0.0677,0.34055 l 0.0362,-0.007 a 50,50 0 0 0 -0.10387,-0.33383 z"
         style="fill:#d9bb7a"
         id="path963" />
      <path
         d="m 150.83265,128.58233 a 50,50 0 0 0 -0.0992,-0.21549 l -16.87133,7.42746 a 31.561493,31.561493 0 0 1 2.12907,6.7939 l 18.08675,-3.45044 a 50,50 0 0 0 -0.0677,-0.34055 50,50 0 0 0 -3.17759,-10.21488 z"
         style="fill:#b3b3b3;fill-opacity:1"
         id="path962" />
      <path
         d="m 150.76186,128.35444 -0.0284,0.0124 a 50,50 0 0 1 0.0992,0.21549 50,50 0 0 0 -0.0708,-0.22789 z"
         style="fill:#d9bb7a"
         id="path961" />
      <path
         d="m 150.49107,127.84129 a 50,50 0 0 1 0.24237,0.52555 l 0.0284,-0.0124 a 50,50 0 0 0 -0.27079,-0.51315 z"
         style="fill:#eec73e"
         id="path960" />
      <path
         d="m 143.55868,116.71019 a 50,50 0 0 0 -0.2465,-0.31264 l -14.13143,11.84113 a 31.561493,31.561493 0 0 1 4.68136,7.55562 l 16.87133,-7.42746 a 50,50 0 0 0 -0.24237,-0.52555 50,50 0 0 0 -2.97294,-5.63635 50,50 0 0 0 -0.22738,-0.34003 50,50 0 0 0 -3.73207,-5.15472 z"
         style="fill:#e6e6e6;fill-opacity:1"
         id="path959" />
      <path
         d="m 143.32458,116.38721 -0.0124,0.0103 a 50,50 0 0 1 0.2465,0.31264 50,50 0 0 0 -0.2341,-0.32298 z"
         style="fill:#eec73e"
         id="path958" />
      <path
         d="m 143.23467,116.29936 a 50,50 0 0 1 0.0775,0.0982 l 0.0124,-0.0103 a 50,50 0 0 0 -0.0899,-0.0879 z"
         style="fill:#fb8b00"
         id="path957" />
      <path
         d="m 108.22389,98.626538 a 50,50 0 0 0 -6.02858,0.189653 50,50 0 0 0 -3.733103,0.420646 l 2.421043,18.243843 a 31.561493,31.561493 0 0 1 4.11654,-0.54208 31.561493,31.561493 0 0 1 24.18096,11.30008 l 14.13143,-11.84113 a 50,50 0 0 0 -0.0775,-0.0982 50,50 0 0 0 -6.83524,-6.66574 50,50 0 0 0 -0.59532,-0.46871 50,50 0 0 0 -17.08681,-8.70644 50,50 0 0 0 -0.7307,-0.20619 50,50 0 0 0 -9.41132,-1.611789 50,50 0 0 0 -0.35139,-0.01395 z"
         style="fill:#004e8a;fill-opacity:1"
         id="path956" />
    </g>
    <text
       xml:space="preserve"
       style="font-size:2.82222px;font-family:Charter;-inkscape-font-specification:Charter;fill:#000000;stroke:none;stroke-width:0.2;stroke-linecap:square;stroke-linejoin:bevel"
       x="129.07492"
       y="43.322834"
       id="text1339"><tspan
         sodipodi:role="line"
         id="tspan1339"
         style="font-size:2.82222px;stroke-width:0.2"
         x="129.07492"
         y="43.322834">Stromsteuer (4,5%)</tspan></text>
    <text
       xml:space="preserve"
       style="font-size:2.82222px;font-family:Charter;-inkscape-font-specification:Charter;fill:#000000;stroke:none;stroke-width:0.2;stroke-linecap:square;stroke-linejoin:bevel"
       x="100.00334"
       y="31.643524"
       id="text1340"><tspan
         sodipodi:role="line"
         id="tspan1340"
         style="font-size:2.82222px;stroke-width:0.2"
         x="100.00334"
         y="31.643524">Umsatzsteuer (16,0%)</tspan></text>
    <text
       xml:space="preserve"
       style="font-size:2.82222px;font-family:Charter;-inkscape-font-specification:Charter;fill:#000000;stroke:none;stroke-width:0.2;stroke-linecap:square;stroke-linejoin:bevel"
       x="47.090637"
       y="37.535217"
       id="text1341"><tspan
         sodipodi:role="line"
         id="tspan1341"
         style="font-size:2.82222px;stroke-width:0.2"
         x="47.090637"
         y="37.535217">Nettonetzentgelt (19,9%)</tspan></text>
    <text
       xml:space="preserve"
       style="font-size:2.82222px;font-family:Charter;-inkscape-font-specification:Charter;fill:#000000;stroke:none;stroke-width:0.2;stroke-linecap:square;stroke-linejoin:bevel"
       x="27.123224"
       y="60.107563"
       id="text1342"><tspan
         sodipodi:role="line"
         id="tspan1342"
         style="font-size:2.82222px;stroke-width:0.2"
         x="27.123224"
         y="60.107563">Entgelt für Messung und</tspan><tspan
         sodipodi:role="line"
         style="font-size:2.82222px;stroke-width:0.2"
         x="27.123224"
         y="63.635338"
         id="tspan1343">Messstellenbetrieb (0,8%)</tspan></text>
    <text
       xml:space="preserve"
       style="font-size:3.88056px;font-family:Charter;-inkscape-font-specification:Charter;fill:#000000;stroke:none;stroke-width:0.2;stroke-linecap:square;stroke-linejoin:bevel"
       x="13.247253"
       y="68.509048"
       id="text1344"><tspan
         sodipodi:role="line"
         id="tspan1344"
         style="stroke-width:0.2"
         x="13.247253"
         y="68.509048">                                                        </tspan></text>
    <text
       xml:space="preserve"
       style="font-size:2.82222px;font-family:Charter;-inkscape-font-specification:Charter;fill:#000000;stroke:none;stroke-width:0.2;stroke-linecap:square;stroke-linejoin:bevel"
       x="67.5672"
       y="106.19459"
       id="text1345"><tspan
         sodipodi:role="line"
         id="tspan1345"
         style="font-size:2.82222px;stroke-width:0.2"
         x="67.5672"
         y="106.19459">Energiebeschaffung (40,6%)</tspan></text>
    <text
       xml:space="preserve"
       style="font-size:2.82222px;font-family:Charter;-inkscape-font-specification:Charter;fill:#000000;stroke:none;stroke-width:0.2;stroke-linecap:square;stroke-linejoin:bevel"
       x="134.04036"
       y="81.903755"
       id="text1346"><tspan
         sodipodi:role="line"
         id="tspan1346"
         style="font-size:2.82222px;stroke-width:0.2"
         x="134.04036"
         y="81.903755">Vertreib und Marge (11,6%)</tspan></text>
    <text
       xml:space="preserve"
       style="font-size:2.82222px;font-family:Charter;-inkscape-font-specification:Charter;fill:#000000;stroke:none;stroke-width:0.2;stroke-linecap:square;stroke-linejoin:bevel"
       x="133.60052"
       y="51.962276"
       id="text1348"><tspan
         sodipodi:role="line"
         id="tspan1348"
         style="font-size:2.82222px;stroke-width:0.2"
         x="133.60052"
         y="51.962276">Konzessionsabagbe (3,6%)</tspan></text>
    <g
       id="g3"
       transform="translate(15.000004,5.0000002)">
      <path
         style="fill:#d7e3f4;fill-opacity:1;stroke-width:0.161;stroke-linecap:square;stroke-linejoin:bevel"
         d="m 150,69.999997 h 10 v -9.999999 h -10 z"
         id="path1" />
      <path
         style="fill:#afc6e9;fill-opacity:1;stroke-width:0.161;stroke-linecap:square;stroke-linejoin:bevel"
         d="m 150,59.999998 v -6.000001 h 10 v 6.000001"
         id="path2" />
      <path
         style="fill:#87aade;fill-opacity:1;stroke-width:0.161;stroke-linecap:square;stroke-linejoin:bevel"
         d="m 150,53.999997 v -4 h 10 v 4"
         id="path3" />
    </g>
    <path
       style="fill:none;fill-opacity:1;stroke:#000000;stroke-width:0.161;stroke-linecap:square;stroke-linejoin:bevel"
       d="M 130.42983,66.709054 165,74.999997"
       id="path5" />
    <path
       style="fill:none;fill-opacity:1;stroke:#000000;stroke-width:0.161;stroke-linecap:square;stroke-linejoin:bevel"
       d="M 129.83426,60.814968 165,54.999998"
       id="path6" />
    <text
       xml:space="preserve"
       style="font-size:2.82223px;font-family:Charter;-inkscape-font-specification:Charter;fill:#000000;fill-opacity:1;stroke:none;stroke-width:0.161;stroke-linecap:square;stroke-linejoin:bevel"
       x="183.95761"
       y="49.722996"
       id="text6"><tspan
         sodipodi:role="line"
         id="tspan6"
         style="fill:#000000;stroke:none;stroke-width:0.161"
         x="183.95761"
         y="49.722996">Umlage nach</tspan><tspan
         sodipodi:role="line"
         style="fill:#000000;stroke:none;stroke-width:0.161"
         x="183.95761"
         y="53.250782"
         id="tspan7">     KWKG</tspan></text>
    <text
       xml:space="preserve"
       style="font-size:2.82223px;font-family:Charter;-inkscape-font-specification:Charter;fill:#000000;fill-opacity:1;stroke:none;stroke-width:0.161;stroke-linecap:square;stroke-linejoin:bevel"
       x="181.3273"
       y="62.234283"
       id="text8"><tspan
         sodipodi:role="line"
         id="tspan8"
         style="stroke-width:0.161"
         x="181.3273"
         y="62.234283">Umlage nach §19</tspan><tspan
         sodipodi:role="line"
         style="stroke-width:0.161"
         x="181.3273"
         y="65.76207"
         id="tspan9">      StromNEV</tspan></text>
    <text
       xml:space="preserve"
       style="font-size:2.82223px;font-family:Charter;-inkscape-font-specification:Charter;fill:#000000;fill-opacity:1;stroke:none;stroke-width:0.161;stroke-linecap:square;stroke-linejoin:bevel"
       x="181.2003"
       y="74.745575"
       id="text10"><tspan
         sodipodi:role="line"
         id="tspan10"
         style="stroke-width:0.161"
         x="181.2003"
         y="74.745575">Umlage Offshore-</tspan><tspan
         sodipodi:role="line"
         style="stroke-width:0.161"
         x="181.2003"
         y="78.273361"
         id="tspan11">          Netz</tspan></text>
    <path
       style="fill:none;fill-opacity:1;stroke:#000000;stroke-width:0.161;stroke-linecap:square;stroke-linejoin:bevel"
       d="m 175.89198,69.748079 c 1.57214,-0.359356 3.27177,-0.129676 4.69214,0.634074 0.61989,0.333323 1.18308,0.761182 1.77541,1.141333 0.797,0.511508 1.64888,0.937448 2.53629,1.268145"
       id="path11"
       inkscape:path-effect="#path-effect12"
       inkscape:original-d="m 175.89198,69.748079 c 1.63738,-0.0744 3.18048,-0.07137 4.69214,0.634074 1.61726,0.754724 0.16882,0.237628 1.77541,1.141333 0.83159,0.467773 1.73485,0.733854 2.53629,1.268145" />
    <path
       style="fill:none;fill-opacity:1;stroke:#000000;stroke-width:0.161;stroke-linecap:square;stroke-linejoin:bevel"
       d="m 176.27242,62.646456 c 1.68945,1.021447 3.8086,1.304001 5.70666,0.760889 0.42442,-0.121443 0.83783,-0.281947 1.26815,-0.380445 0.66489,-0.152189 1.36414,-0.152189 2.02903,0"
       id="path12"
       inkscape:path-effect="#path-effect13"
       inkscape:original-d="m 176.27242,62.646456 c 1.80965,0.460121 3.80392,0.998733 5.70666,0.760889 0.43912,-0.05489 0.85382,-0.321255 1.26815,-0.380445 0.65339,-0.09334 1.37154,0 2.02903,0" />
    <path
       style="fill:none;fill-opacity:1;stroke:#000000;stroke-width:0.161;stroke-linecap:square;stroke-linejoin:bevel"
       d="m 175.76516,56.432537 c 0.57619,-0.130664 1.13334,-0.344955 1.64859,-0.634074 0.2973,-0.166821 0.58097,-0.358501 0.8877,-0.507257 0.32522,-0.157718 0.67198,-0.265087 1.01452,-0.380444 0.43181,-0.14542 0.85997,-0.304793 1.26815,-0.507259 1.02043,-0.506153 1.8955,-1.270888 2.91674,-1.775407 0.47637,-0.235339 0.98956,-0.417429 1.39496,-0.760887 0.0913,-0.07737 0.17626,-0.162301 0.25363,-0.253629"
       id="path13"
       inkscape:path-effect="#path-effect14"
       inkscape:original-d="m 175.76516,56.432537 c 3.17455,-1.587273 -1.83248,0.857816 1.64859,-0.634074 0.31325,-0.134247 0.57888,-0.363136 0.8877,-0.507257 0.32729,-0.152733 0.67635,-0.253629 1.01452,-0.380444 0.42272,-0.169088 0.8567,-0.312362 1.26815,-0.507259 0.99001,-0.468951 2.05581,-1.129713 2.91674,-1.775407 0.50511,-0.378831 0.92962,-0.450663 1.39496,-0.760887 0.43716,-0.291438 -0.098,-0.253629 0.25363,-0.253629" />
    <path
       style="fill:none;fill-opacity:1;stroke:#000000;stroke-width:0.161;stroke-linecap:square;stroke-linejoin:bevel"
       d="m 130.11187,57.700685 c 2.23436,-1.866539 4.98486,-3.108704 7.86251,-3.550812 0.29483,-0.0453 0.59681,-0.08413 0.86478,-0.215154 0.13399,-0.06551 0.25801,-0.154245 0.35368,-0.268666 0.0957,-0.114421 0.16196,-0.255451 0.17651,-0.403884 0.004,-0.04214 0.004,-0.08468 0,-0.126814 l 0.25363,-0.126815"
       id="path16"
       inkscape:path-effect="#path-effect17"
       inkscape:original-d="m 130.11187,57.700685 c 2.67851,-1.070129 5.30459,-2.204535 7.86251,-3.550812 0.1588,-0.08358 1.3716,-0.864338 1.39497,-0.887704 0.0299,-0.02989 0,-0.08454 0,-0.126814 0.0845,-0.04227 0.16908,-0.08454 0.25363,-0.126815" />
    <path
       style="fill:none;fill-opacity:1;stroke:#000000;stroke-width:0.161;stroke-linecap:square;stroke-linejoin:bevel"
       d="m 127.06832,50.979506 c 0.12773,-0.240419 0.30074,-0.456683 0.50726,-0.634074 0.43261,-0.371594 0.98854,-0.55868 1.52178,-0.760889 1.1325,-0.429455 2.22317,-0.961881 3.29718,-1.521775 1.17732,-0.613752 2.33949,-1.263115 3.42399,-2.029036 0.76111,-0.537527 1.48235,-1.131491 2.15585,-1.775405"
       id="path17"
       inkscape:path-effect="#path-effect18"
       inkscape:original-d="m 127.06832,50.979506 c 0.16909,-0.211357 0.28421,-0.480732 0.50726,-0.634074 0.46734,-0.321297 1.00924,-0.518107 1.52178,-0.760889 1.09394,-0.518186 2.20897,-0.991624 3.29718,-1.521775 1.34931,-0.657357 2.15919,-1.185836 3.42399,-2.029036 0.75399,-0.502656 1.6416,-1.00403 2.15585,-1.775405" />
    <path
       style="fill:none;fill-opacity:1;stroke:#000000;stroke-width:0.161;stroke-linecap:square;stroke-linejoin:bevel"
       d="m 114.7673,38.678482 c 0.49656,-0.373586 0.86065,-0.919729 1.01451,-1.521778 0.0845,-0.330729 0.10693,-0.673739 0.12682,-1.014518 0.0665,-1.140261 0.10882,-2.281938 0.12681,-3.423997"
       id="path18"
       inkscape:path-effect="#path-effect19"
       inkscape:original-d="m 114.7673,38.678482 c 0.0642,-0.714264 0.72381,-0.940372 1.01451,-1.521778 0.16355,-0.327091 -0.0114,-0.738081 0.12682,-1.014518 0.34664,-0.693277 0.12681,-2.555645 0.12681,-3.423997" />
    <path
       style="fill:none;fill-opacity:1;stroke:#000000;stroke-width:0.161;stroke-linecap:square;stroke-linejoin:bevel"
       d="M 73.045261,45.653287 C 71.987947,45.180366 71.03102,44.484419 70.255338,43.624253 69.852933,43.17802 69.500001,42.689796 69.114008,42.229293 68.841874,41.904628 68.550449,41.589642 68.353119,41.214775 68.220186,40.962243 68.133304,40.688593 68.027378,40.423596 67.921453,40.1586 67.792524,39.896285 67.59223,39.692998 c -0.08399,-0.08525 -0.179862,-0.159392 -0.253629,-0.25363 -0.137809,-0.17605 -0.186311,-0.41856 -0.126815,-0.634071"
       id="path19"
       inkscape:path-effect="#path-effect20"
       inkscape:original-d="m 73.045261,45.653287 c -0.882534,-0.75284 -1.970611,-1.209722 -2.789923,-2.029034 -0.406159,-0.406159 -0.787641,-0.940215 -1.14133,-1.39496 -0.130654,-0.167984 -0.622795,-0.738333 -0.760889,-1.014518 -0.254627,-0.509251 -0.441169,-1.042196 -0.760889,-1.521777 -0.06632,-0.09948 -0.20016,-0.146691 -0.253629,-0.25363 -0.107559,-0.215114 0.08217,-0.425093 -0.126815,-0.634071" />
    <path
       style="fill:none;fill-opacity:1;stroke:#000000;stroke-width:0.161;stroke-linecap:square;stroke-linejoin:bevel"
       d="m 65.690011,61.378311 c -0.746349,-0.294749 -1.508738,-0.548878 -2.282666,-0.760889 -0.376105,-0.103031 -0.755613,-0.196257 -1.141331,-0.25363 -0.754762,-0.112266 -1.524441,-0.08581 -2.282666,0 -0.511228,0.05786 -1.019416,0.142558 -1.521775,0.25363"
       id="path20"
       inkscape:path-effect="#path-effect21"
       inkscape:original-d="m 65.690011,61.378311 c -0.634727,-0.60212 -1.474565,-0.6711 -2.282666,-0.760889 -2.136299,-0.237366 0.12954,5.29e-4 -1.141331,-0.25363 -0.704874,-0.140975 -1.558316,0 -2.282666,0 -0.211931,0 -1.521775,-0.08366 -1.521775,0.25363" />
    <path
       style="fill:none;fill-opacity:1;stroke:#000000;stroke-width:0.161;stroke-linecap:square;stroke-linejoin:bevel"
       d="m 80.907773,94.857389 c -0.73968,2.221317 -0.600738,4.722278 0.380444,6.847991 0.06527,0.1414 0.134249,0.28157 0.184571,0.42896 0.05032,0.14739 0.08174,0.30353 0.06906,0.45875 -0.007,0.0857 -0.0273,0.16983 -0.03566,0.25541 -0.0084,0.0856 -0.0039,0.17549 0.03566,0.25184 0.02793,0.0539 0.07288,0.0989 0.126814,0.12682"
       id="path22"
       inkscape:path-effect="#path-effect22"
       inkscape:original-d="m 80.907773,94.857389 c -0.111176,2.304891 0.153241,4.575958 0.380444,6.847991 0.193889,1.9389 0.0091,-0.0903 0.25363,0.88771 0.0041,0.0163 -0.03789,0.46936 0,0.50725 0.169084,0.16909 0.126814,-0.21135 0.126814,0.12682" />
    <path
       style="fill:none;fill-opacity:1;stroke:#000000;stroke-width:0.161;stroke-linecap:square;stroke-linejoin:bevel"
       d="m 146.97823,79.766439 c -0.33779,-0.537456 -0.71996,-1.047011 -1.14134,-1.521774 -0.19858,-0.223736 -0.40628,-0.440162 -0.63407,-0.634074 -0.87924,-0.74847 -2.02412,-1.128948 -3.17037,-1.268148 -0.67288,-0.08171 -1.35243,-0.08608 -2.02903,-0.126815 -0.97941,-0.05896 -1.95338,-0.194263 -2.91674,-0.380442 -1.13492,-0.219336 -2.26808,-0.510652 -3.424,-0.507259 -0.71994,0.0021 -1.44575,0.11861 -2.15585,0 -0.17209,-0.02874 -0.34189,-0.07119 -0.50726,-0.126815"
       id="path23"
       inkscape:path-effect="#path-effect23"
       inkscape:original-d="m 146.97823,79.766439 c -0.2064,-0.799573 -0.55485,-0.993933 -1.14134,-1.521774 -0.22217,-0.199957 -0.39494,-0.454732 -0.63407,-0.634074 -0.85979,-0.644843 -2.11455,-1.092179 -3.17037,-1.268148 -4.28048,-0.713412 0.28288,0.130064 -2.02903,-0.126815 -0.95554,-0.106169 -1.96052,-0.25572 -2.91674,-0.380442 -1.14049,-0.148762 -2.29034,-0.318317 -3.424,-0.507259 -0.68434,-0.114059 -1.48347,0.168095 -2.15585,0 -0.2229,-0.05573 -0.14287,-0.126815 -0.50726,-0.126815" />
  </g>
</svg>
