<?xml version="1.0" encoding="UTF-8" standalone="no"?>
<!-- Created with Inkscape (http://www.inkscape.org/) -->

<svg
   width="210mm"
   height="297mm"
   viewBox="0 0 210 297"
   version="1.1"
   id="svg1"
   sodipodi:docname="Preisanteile für Stromendpreis.svg"
   inkscape:version="1.3.2 (091e20e, 2023-11-25, custom)"
   xmlns:inkscape="http://www.inkscape.org/namespaces/inkscape"
   xmlns:sodipodi="http://sodipodi.sourceforge.net/DTD/sodipodi-0.dtd"
   xmlns="http://www.w3.org/2000/svg"
   xmlns:svg="http://www.w3.org/2000/svg"
   xmlns:rdf="http://www.w3.org/1999/02/22-rdf-syntax-ns#"
   xmlns:cc="http://creativecommons.org/ns#"
   xmlns:dc="http://purl.org/dc/elements/1.1/">
  <title
     id="title1348">Preisanteile für Stromendpreis</title>
  <sodipodi:namedview
     id="namedview1"
     pagecolor="#ffffff"
     bordercolor="#999999"
     borderopacity="1"
     inkscape:showpageshadow="2"
     inkscape:pageopacity="0"
     inkscape:pagecheckerboard="0"
     inkscape:deskcolor="#d1d1d1"
     inkscape:document-units="mm"
     showgrid="true"
     inkscape:zoom="1.0431888"
     inkscape:cx="371.45721"
     inkscape:cy="657.11979"
     inkscape:window-width="2560"
     inkscape:window-height="1369"
     inkscape:window-x="-8"
     inkscape:window-y="-8"
     inkscape:window-maximized="1"
     inkscape:current-layer="svg1">
    <inkscape:grid
       id="grid1"
       units="mm"
       originx="0"
       originy="0"
       spacingx="0.99999998"
       spacingy="1"
       empcolor="#0099e5"
       empopacity="0.30196078"
       color="#0099e5"
       opacity="0.14901961"
       empspacing="5"
       dotted="false"
       gridanglex="30"
       gridanglez="30"
       visible="true" />
  </sodipodi:namedview>
  <defs
     id="defs1">
    <clipPath
       clipPathUnits="userSpaceOnUse"
       id="clipPath2">
      <g
         inkscape:label="Clip"
         id="use2">
        <ellipse
           style="fill:none;stroke:#000000;stroke-width:0.2;stroke-linecap:square;stroke-linejoin:bevel"
           id="ellipse22"
           cx="73.015182"
           cy="218.62639"
           rx="43.015179"
           ry="43.626389" />
      </g>
    </clipPath>
    <clipPath
       clipPathUnits="userSpaceOnUse"
       id="clipPath4">
      <g
         inkscape:label="Clip"
         id="use4">
        <path
           id="path4"
           style="fill:none;stroke:#000000;stroke-width:0.2;stroke-linecap:square;stroke-linejoin:bevel"
           d="M 218.01518,123.62639 A 43.015179,43.626389 0 0 1 175,167.25278 43.015179,43.626389 0 0 1 131.98482,123.62639 43.015179,43.626389 0 0 1 175,79.999998 43.015179,43.626389 0 0 1 218.01518,123.62639 Z"
           inkscape:label="ellipse15" />
      </g>
    </clipPath>
  </defs>
  <g
     inkscape:label="Ebene 1"
     inkscape:groupmode="layer"
     id="layer1" />
  <g
     inkscape:groupmode="layer"
     inkscape:label="Chart-Layer: Vertrieb und Marge:11.6,Energiebeschaffung:40.6,Entgelt für Messung und Messstellenbetrieb:0.8,Nettonetzentgelt:19.9,Umsatzsteuer:16,Stromsteuer:4.5,Konzessionsabgabe:3.6,other:3"
     id="g56" />
  <g
     inkscape:groupmode="layer"
     inkscape:label="Chart-Layer: Vertrieb und Marge:11.6,Energiebeschaffung:40.6,Entgelt für Messung und Messstellenbetrieb:0.8,Nettonetzentgelt:19.9,Umsatzsteuer:16,Stromsteuer:4.5,Konzessionsabgabe:3.6,other:3"
     id="g446" />
  <g
     inkscape:groupmode="layer"
     inkscape:label="Chart-Layer: Vertrieb und Marge:11.6,Energiebeschaffung:40.6,Entgelt für Messung und Messstellenbetrieb:0.8,Nettonetzentgelt:19.9,Umsatzsteuer:16,Stromsteuer:4.5,Konzessionsabgabe:3.6,other:3"
     id="g462" />
  <g
     inkscape:groupmode="layer"
     inkscape:label="Chart-Layer: Vertrieb und Marge:11.6,Energiebeschaffung:40.6,Entgelt für Messung und Messstellenbetrieb:0.8,Nettonetzentgelt:19.9,Umsatzsteuer:16,Stromsteuer:4.5,Konzessionsabgabe:3.6,other:3"
     id="g478" />
  <path
     d="m 74.005819,144.1881 a 31.561493,31.561493 0 0 1 0.205672,-1.56115 l -18.159615,-3.46438 a 50,50 0 0 0 -0.280603,2.48873 z"
     style="fill:#cc4c03;fill-opacity:1"
     id="path979" />
  <path
     d="m 98.421899,98.93453 0.04031,0.302307 a 50,50 0 0 1 3.733103,-0.420646 50,50 0 0 0 -3.773411,0.118339 z"
     style="fill:#fb8b00"
     id="path978" />
  <path
     d="m 96.02618,99.511239 a 50,50 0 0 1 2.436027,-0.274402 l -0.04031,-0.302307 a 50,50 0 0 0 -2.395719,0.576709 z"
     style="fill:#f44800"
     id="path977" />
  <path
     d="m 56.156779,138.23032 a 50,50 0 0 0 -0.104903,0.93225 l 18.159615,3.46438 A 31.561493,31.561493 0 0 1 100.88325,117.48068 L 98.462207,99.236837 a 50,50 0 0 0 -2.436027,0.274402 50,50 0 0 0 -4.672583,1.124481 50,50 0 0 0 -5.675623,1.98592 50,50 0 0 0 -4.34392,2.06913 50,50 0 0 0 -5.101498,3.20497 50,50 0 0 0 -3.804936,2.91042 50,50 0 0 0 -4.297928,4.29844 50,50 0 0 0 -3.077849,3.5848 50,50 0 0 0 -3.297473,5.24722 50,50 0 0 0 -2.212268,4.03851 50,50 0 0 0 -2.125452,6.07405 50,50 0 0 0 -1.259871,4.18114 z"
     style="fill:#d28700;fill-opacity:1"
     id="path976" />
  <path
     d="m 55.885478,139.13104 0.166398,0.0315 a 50,50 0 0 1 0.104903,-0.93225 50,50 0 0 0 -0.271301,0.90072 z"
     style="fill:#f44800"
     id="path975" />
  <path
     d="m 55.476717,141.61048 0.294556,0.0408 a 50,50 0 0 1 0.280603,-2.48873 l -0.166398,-0.0315 a 50,50 0 0 0 -0.408761,2.47944 z"
     style="fill:#d40000"
     id="path974" />
  <path
     d="m 55.358378,145.31723 a 50,50 0 0 1 0.412895,-3.66593 l -0.294556,-0.0408 a 50,50 0 0 0 -0.118339,3.70675 z"
     style="fill:#980101"
     id="path973" />
  <path
     d="m 55.200248,150.27765 a 50,50 0 0 1 0.15813,-4.96042 50,50 0 0 0 -0.358634,3.18275 50,50 0 0 0 0.200504,1.77767 z"
     style="fill:#980101"
     id="path972" />
  <path
     d="m 107.95413,198.16723 a 50,50 0 0 1 -3.15639,0.31006 50,50 0 0 0 0.20205,0.0227 50,50 0 0 0 2.95434,-0.3328 z"
     style="fill:#980101"
     id="path970" />
  <path
     d="m 138.79825,184.96752 a 50,50 0 0 0 3.32331,-3.32331 l -13.71544,-12.24576 a 31.561493,31.561493 0 0 1 -23.40633,10.66291 31.561493,31.561493 0 0 1 -31.561379,-31.56138 31.561493,31.561493 0 0 1 0.567408,-4.31188 l -18.234546,-2.5368 a 50,50 0 0 0 -0.412895,3.66593 50,50 0 0 0 -0.15813,4.96042 50,50 0 0 0 0.66921,5.9402 50,50 0 0 0 0.882633,4.83278 50,50 0 0 0 2.001945,5.72162 50,50 0 0 0 1.851567,4.46278 50,50 0 0 0 3.298507,5.24929 50,50 0 0 0 2.672188,3.85764 50,50 0 0 0 4.558378,4.5589 50,50 0 0 0 3.249414,3.04167 50,50 0 0 0 5.919535,3.71967 50,50 0 0 0 3.352767,2.00867 50,50 0 0 0 8.424809,2.94814 50,50 0 0 0 1.875338,0.63665 50,50 0 0 0 10.841201,1.22163 50,50 0 0 0 3.15639,-0.31006 50,50 0 0 0 7.68326,-0.86558 50,50 0 0 0 3.9951,-1.28209 50,50 0 0 0 6.32675,-2.21382 50,50 0 0 0 3.95738,-2.28203 50,50 0 0 0 5.35833,-3.36672 50,50 0 0 0 3.5233,-3.18947 z"
     style="fill:#b90f22;fill-opacity:1"
     id="path969" />
  <path
     d="m 142.29726,181.80079 -0.1757,-0.15658 a 50,50 0 0 1 -3.32331,3.32331 50,50 0 0 0 3.49901,-3.16673 z"
     style="fill:#980101"
     id="path968" />
  <path
     d="m 143.24759,180.51818 a 50,50 0 0 1 -1.12603,1.12603 l 0.1757,0.15658 a 50,50 0 0 0 0.95033,-1.28261 z"
     style="fill:#460101"
     id="path967" />
  <path
     d="m 154.99984,148.49998 h -18.43815 a 31.561493,31.561493 0 0 1 -8.15557,20.89847 l 13.71544,12.24576 a 50,50 0 0 0 1.12603,-1.12603 50,50 0 0 0 2.06292,-2.78381 50,50 0 0 0 3.69642,-5.88233 50,50 0 0 0 1.61488,-3.29747 50,50 0 0 0 2.35542,-6.73086 50,50 0 0 0 0.87178,-3.10885 50,50 0 0 0 1.15083,-10.21488 z"
     style="fill:#951169;fill-opacity:1"
     id="path966" />
  <path
     d="m 154.14821,139.49019 a 50,50 0 0 0 -0.0703,-0.35243 l -18.08675,3.45044 a 31.561493,31.561493 0 0 1 0.57051,5.91178 h 18.43815 a 50,50 0 0 0 -0.85163,-9.00979 z"
     style="fill:#008877;fill-opacity:1"
     id="path965" />
  <path
     d="m 154.11411,139.13104 -0.0362,0.007 a 50,50 0 0 1 0.0703,0.35243 50,50 0 0 0 -0.0341,-0.35915 z"
     style="fill:#fdd99b"
     id="path964" />
  <path
     d="m 154.01024,138.79721 a 50,50 0 0 1 0.0677,0.34055 l 0.0362,-0.007 a 50,50 0 0 0 -0.10387,-0.33383 z"
     style="fill:#d9bb7a"
     id="path963" />
  <path
     d="m 150.83265,128.58233 a 50,50 0 0 0 -0.0992,-0.21549 l -16.87133,7.42746 a 31.561493,31.561493 0 0 1 2.12907,6.7939 l 18.08675,-3.45044 a 50,50 0 0 0 -0.0677,-0.34055 50,50 0 0 0 -3.17759,-10.21488 z"
     style="fill:#7fab16;fill-opacity:1"
     id="path962" />
  <path
     d="m 150.76186,128.35444 -0.0284,0.0124 a 50,50 0 0 1 0.0992,0.21549 50,50 0 0 0 -0.0708,-0.22789 z"
     style="fill:#d9bb7a"
     id="path961" />
  <path
     d="m 150.49107,127.84129 a 50,50 0 0 1 0.24237,0.52555 l 0.0284,-0.0124 a 50,50 0 0 0 -0.27079,-0.51315 z"
     style="fill:#eec73e"
     id="path960" />
  <path
     d="m 143.55868,116.71019 a 50,50 0 0 0 -0.2465,-0.31264 l -14.13143,11.84113 a 31.561493,31.561493 0 0 1 4.68136,7.55562 l 16.87133,-7.42746 a 50,50 0 0 0 -0.24237,-0.52555 50,50 0 0 0 -2.97294,-5.63635 50,50 0 0 0 -0.22738,-0.34003 50,50 0 0 0 -3.73207,-5.15472 z"
     style="fill:#b1b00e;fill-opacity:1"
     id="path959" />
  <path
     d="m 143.32458,116.38721 -0.0124,0.0103 a 50,50 0 0 1 0.2465,0.31264 50,50 0 0 0 -0.2341,-0.32298 z"
     style="fill:#eec73e"
     id="path958" />
  <path
     d="m 143.23467,116.29936 a 50,50 0 0 1 0.0775,0.0982 l 0.0124,-0.0103 a 50,50 0 0 0 -0.0899,-0.0879 z"
     style="fill:#fb8b00"
     id="path957" />
  <path
     d="m 108.22389,98.626538 a 50,50 0 0 0 -6.02858,0.189653 50,50 0 0 0 -3.733103,0.420646 l 2.421043,18.243843 a 31.561493,31.561493 0 0 1 4.11654,-0.54208 31.561493,31.561493 0 0 1 24.18096,11.30008 l 14.13143,-11.84113 a 50,50 0 0 0 -0.0775,-0.0982 50,50 0 0 0 -6.83524,-6.66574 50,50 0 0 0 -0.59532,-0.46871 50,50 0 0 0 -17.08681,-8.70644 50,50 0 0 0 -0.7307,-0.20619 50,50 0 0 0 -9.41132,-1.611789 50,50 0 0 0 -0.35139,-0.01395 z"
     style="fill:#d7ac00;fill-opacity:1"
     id="path956" />
  <path
     d="m 104.99979,98.499931 a 50,50 0 0 0 -2.80448,0.31626 50,50 0 0 1 6.02858,-0.189653 50,50 0 0 0 -3.2241,-0.126607 z"
     style="fill:#fb8b00"
     id="path955" />
  <text
     xml:space="preserve"
     style="font-size:3.88056px;font-family:Charter;-inkscape-font-specification:Charter;fill:#000000;stroke:none;stroke-width:0.2;stroke-linecap:square;stroke-linejoin:bevel"
     x="90.000008"
     y="60"
     id="text1338"><tspan
       sodipodi:role="line"
       id="tspan1338"
       style="stroke-width:0.2;fill:#000000"
       x="90.000008"
       y="60" /></text>
  <text
     xml:space="preserve"
     style="font-size:3.88056px;font-family:Charter;-inkscape-font-specification:Charter;fill:#000000;stroke:none;stroke-width:0.2;stroke-linecap:square;stroke-linejoin:bevel"
     x="156.20258"
     y="120.18952"
     id="text1339"><tspan
       sodipodi:role="line"
       id="tspan1339"
       style="stroke-width:0.2"
       x="156.20258"
       y="120.18952">Stromsteuer (4,5%)</tspan></text>
  <text
     xml:space="preserve"
     style="font-size:3.88056px;font-family:Charter;-inkscape-font-specification:Charter;fill:#000000;stroke:none;stroke-width:0.2;stroke-linecap:square;stroke-linejoin:bevel"
     x="123.00203"
     y="97.899986"
     id="text1340"><tspan
       sodipodi:role="line"
       id="tspan1340"
       style="stroke-width:0.2"
       x="123.00203"
       y="97.899986">Umsatzsteuer (16,0%)</tspan></text>
  <text
     xml:space="preserve"
     style="font-size:3.88056px;font-family:Charter;-inkscape-font-specification:Charter;fill:#000000;stroke:none;stroke-width:0.2;stroke-linecap:square;stroke-linejoin:bevel"
     x="26.444538"
     y="107.60583"
     id="text1341"><tspan
       sodipodi:role="line"
       id="tspan1341"
       style="stroke-width:0.2"
       x="26.444538"
       y="107.60583">Nettonetzentgelt (19,9%)</tspan></text>
  <text
     xml:space="preserve"
     style="font-size:3.88056px;font-family:Charter;-inkscape-font-specification:Charter;fill:#000000;stroke:none;stroke-width:0.2;stroke-linecap:square;stroke-linejoin:bevel"
     x="6.2919049"
     y="140.34161"
     id="text1342"><tspan
       sodipodi:role="line"
       id="tspan1342"
       style="stroke-width:0.2"
       x="6.2919049"
       y="140.34161">Entgelt für Messung und</tspan><tspan
       sodipodi:role="line"
       style="stroke-width:0.2"
       x="6.2919049"
       y="145.19231"
       id="tspan1343">Messstellenbetrieb (0,8%)</tspan></text>
  <text
     xml:space="preserve"
     style="font-size:3.88056px;font-family:Charter;-inkscape-font-specification:Charter;fill:#000000;stroke:none;stroke-width:0.2;stroke-linecap:square;stroke-linejoin:bevel"
     x="13.247253"
     y="68.509048"
     id="text1344"><tspan
       sodipodi:role="line"
       id="tspan1344"
       style="stroke-width:0.2"
       x="13.247253"
       y="68.509048">                                                        </tspan></text>
  <text
     xml:space="preserve"
     style="font-size:3.88056px;font-family:Charter;-inkscape-font-specification:Charter;fill:#000000;stroke:none;stroke-width:0.2;stroke-linecap:square;stroke-linejoin:bevel"
     x="45.461208"
     y="205.94707"
     id="text1345"><tspan
       sodipodi:role="line"
       id="tspan1345"
       style="stroke-width:0.2"
       x="45.461208"
       y="205.94707">Energiebeschaffung (40,6%)</tspan></text>
  <text
     xml:space="preserve"
     style="font-size:3.88056px;font-family:Charter;-inkscape-font-specification:Charter;fill:#000000;stroke:none;stroke-width:0.2;stroke-linecap:square;stroke-linejoin:bevel"
     x="156.86572"
     y="172.56253"
     id="text1346"><tspan
       sodipodi:role="line"
       id="tspan1346"
       style="stroke-width:0.2"
       x="156.86572"
       y="172.56253">Vertreib und Marge (11,6%)</tspan></text>
  <text
     xml:space="preserve"
     style="font-size:3.88056px;font-family:Charter;-inkscape-font-specification:Charter;fill:#000000;stroke:none;stroke-width:0.2;stroke-linecap:square;stroke-linejoin:bevel"
     x="162.42413"
     y="147.42349"
     id="text1347"><tspan
       sodipodi:role="line"
       id="tspan1347"
       style="stroke-width:0.2"
       x="162.42413"
       y="147.42349">3%</tspan></text>
  <text
     xml:space="preserve"
     style="font-size:3.88056px;font-family:Charter;-inkscape-font-specification:Charter;fill:#000000;stroke:none;stroke-width:0.2;stroke-linecap:square;stroke-linejoin:bevel"
     x="158.00467"
     y="136.79936"
     id="text1348"><tspan
       sodipodi:role="line"
       id="tspan1348"
       style="stroke-width:0.2"
       x="158.00467"
       y="136.79936">Konzessionsabagbe (3,6%)</tspan></text>
  <metadata
     id="metadata1348">
    <rdf:RDF>
      <cc:Work
         rdf:about="">
        <dc:title>Preisanteile für Stromendpreis</dc:title>
      </cc:Work>
    </rdf:RDF>
  </metadata>
</svg>
