<?xml version="1.0" encoding="UTF-8" standalone="no"?>
<!-- Created with Inkscape (http://www.inkscape.org/) -->

<svg
   version="1.1"
   id="svg9"
   xml:space="preserve"
   width="830"
   height="576"
   viewBox="0 0 830 576"
   sodipodi:docname="PTW_Logo_CMYK_whitebackground.svg"
   inkscape:version="1.1 (c68e22c387, 2021-05-23)"
   xmlns:inkscape="http://www.inkscape.org/namespaces/inkscape"
   xmlns:sodipodi="http://sodipodi.sourceforge.net/DTD/sodipodi-0.dtd"
   xmlns="http://www.w3.org/2000/svg"
   xmlns:svg="http://www.w3.org/2000/svg"><defs
     id="defs13" /><sodipodi:namedview
     id="namedview11"
     pagecolor="#ffffff"
     bordercolor="#666666"
     borderopacity="1.0"
     inkscape:pageshadow="2"
     inkscape:pageopacity="0.0"
     inkscape:pagecheckerboard="0"
     showgrid="false"
     showguides="false"
     width="817px"
     inkscape:zoom="1.1009789"
     inkscape:cx="449.14576"
     inkscape:cy="287.47145"
     inkscape:window-width="1920"
     inkscape:window-height="1057"
     inkscape:window-x="3832"
     inkscape:window-y="-8"
     inkscape:window-maximized="1"
     inkscape:current-layer="g17" /><g
     id="g15"
     inkscape:groupmode="layer"
     inkscape:label="PTW_Logo_CMYK_whitebackground_eps_converted_to_pdf"
     transform="matrix(1.3333333,0,0,-1.3333333,0,576)"><g
       id="g17"
       transform="scale(0.1)"><path
         d="m 843.895,890.949 -1.926,-54.39 c -50.918,2.562 -103.512,3.851 -157.77,3.851 -0.515,-49.371 -0.769,-111.988 -0.769,-187.851 0,-83.84 1.281,-171.789 3.855,-263.848 h -70.59 c 3.086,87.687 4.629,175.641 4.629,263.848 0,74.832 -0.773,137.453 -2.316,187.851 -38.063,0 -91.551,-1.539 -160.469,-4.629 l 1.93,55.168 h 383.426"
         style="fill:#231f20;fill-opacity:1;fill-rule:nonzero;stroke:none"
         id="path19" /><path
         d="m 1329.2,890.949 c -1.03,-48.609 -1.8,-94 -2.32,-136.16 -0.51,-42.187 -0.77,-81.539 -0.77,-118.047 0,-172.301 -68.02,-258.441 -204.05,-258.441 -35.49,0 -65.91,5.078 -91.23,15.238 -25.34,10.152 -46.166,25.711 -62.49,46.672 -16.336,20.949 -28.297,47.379 -35.879,79.258 -7.59,31.89 -11.375,69.562 -11.375,113.031 0,38.059 -0.262,78.5 -0.773,121.32 -0.516,42.809 -1.29,88.52 -2.317,137.129 h 73.293 c -3.086,-97.98 -4.629,-174.738 -4.629,-230.289 0,-44.738 2.184,-81.199 6.559,-109.359 4.371,-28.16 12.151,-51.629 23.331,-70.403 11.19,-18.769 25.27,-32.078 42.24,-39.918 16.98,-7.839 38.58,-11.761 64.81,-11.761 27.51,0 49.89,3.922 67.12,11.761 17.22,7.84 31.24,20.829 42.04,38.961 10.8,18.129 18.52,41.399 23.15,69.821 4.63,28.41 6.94,65.629 6.94,111.668 0,27.25 -0.45,59.851 -1.35,97.789 -0.9,37.929 -2.25,81.832 -4.05,131.73 h 71.75"
         style="fill:#231f20;fill-opacity:1;fill-rule:nonzero;stroke:none"
         id="path21" /><path
         d="m 2142.84,640.609 c 0,57.09 -18.2,104.782 -54.59,143.102 -36.39,38.309 -92.64,57.48 -168.76,57.48 -10.8,0 -25.59,-1.3 -44.36,-3.871 2.06,-59.922 3.09,-121.5 3.09,-184.761 0,-69.43 1.41,-139.899 4.24,-211.387 20.57,-4.121 40.37,-6.172 59.41,-6.172 67.89,0 118.35,20.121 151.4,60.371 33.04,40.25 49.57,88.649 49.57,145.238 z m 67.12,17.352 c 0,-73.039 -23.34,-137.07 -70.02,-192.102 -46.67,-55.039 -111.03,-82.55 -193.06,-82.55 -26.75,0 -71.36,1.812 -133.85,5.402 3.85,79.719 5.78,167.668 5.78,263.848 0,90.523 -1.93,169.98 -5.78,238.39 h 42.43 c 10.28,0 25.97,0.383 47.06,1.16 21.08,0.762 34.97,1.153 41.66,1.153 90.78,0 157.77,-22.313 200.97,-66.922 43.2,-44.621 64.81,-100.75 64.81,-168.379"
         style="fill:#231f20;fill-opacity:1;fill-rule:nonzero;stroke:none"
         id="path23" /><path
         d="M 2584.55,601.641 C 2524.12,752.59 2493.9,832.82 2493.9,842.34 h -4.24 c 0,-7.969 -31.25,-88.211 -93.74,-240.699 z m 147.74,-212.93 h -81.39 c 0,17.23 -16.2,71.371 -48.61,162.398 h -222.57 c -31.89,-89.75 -47.83,-143.879 -47.83,-162.398 h -77.92 c 0,9.508 33.17,91.738 99.52,246.68 66.35,154.937 99.52,240.129 99.52,255.558 h 89.49 c 0,-15.179 31.64,-99.129 94.9,-251.89 63.26,-152.75 94.89,-236.207 94.89,-250.348"
         style="fill:#231f20;fill-opacity:1;fill-rule:nonzero;stroke:none"
         id="path25" /><path
         d="m 3072.93,750.539 c 0,61.203 -41.4,91.801 -124.2,91.801 -29.58,0 -54.39,-1.68 -74.45,-5.02 1.79,-44.738 2.7,-105.558 2.7,-182.449 15.43,-0.512 30.21,-0.769 44.36,-0.769 101.06,0 151.59,32.136 151.59,96.437 z m 118.04,-361.828 h -74.45 c -24.68,73.801 -42.69,122.668 -54,146.578 -14.4,30.09 -30.73,49.512 -48.99,58.25 -14.4,6.953 -40.25,10.422 -77.53,10.422 -21.86,0 -41.28,-0.27 -58.25,-0.781 0,-83.059 1.54,-154.559 4.63,-214.469 h -71.75 c 3.86,79.719 5.79,167.668 5.79,263.848 0,90.523 -1.93,169.98 -5.79,238.39 h 54.39 c 11.57,0 26.23,0.383 43.97,1.16 17.75,0.762 38.06,1.153 60.95,1.153 112.64,0 168.96,-38.84 168.96,-116.492 0,-64.551 -31.63,-109.93 -94.9,-136.161 v -3.867 c 28.29,-8.48 51.18,-28.16 68.67,-59.023 14.65,-25.719 40.75,-88.719 78.3,-189.008"
         style="fill:#231f20;fill-opacity:1;fill-rule:nonzero;stroke:none"
         id="path27" /><path
         d="m 3828.26,388.711 h -72.52 c 0,57.34 -4,140.269 -11.97,248.809 -7.97,108.519 -12.21,173.57 -12.72,195.179 h -3.86 c -25.73,-83.578 -58.3,-174.289 -97.78,-272.14 -39.49,-97.848 -59.21,-155.137 -59.21,-171.848 h -52.07 c 0,18 -18.4,76.309 -55.18,174.93 -36.78,98.629 -60.04,164.648 -69.81,198.078 -9.78,33.429 -16.46,57.09 -20.05,70.98 h -3.87 c -0.76,-35.238 -5.84,-106.34 -15.24,-213.308 -9.39,-106.993 -14.08,-183.879 -14.08,-230.68 h -66.34 c 0,2.57 8.74,73.348 26.23,212.348 17.49,139 26.23,235.621 26.23,289.89 h 101.44 c 0,-28.289 20.59,-99.019 61.72,-212.16 41.15,-113.148 61.72,-181.68 61.72,-205.609 h 3.87 c 0,23.929 23.14,92.652 69.43,206.191 46.29,113.527 69.43,184.059 69.43,211.578 h 99.14 c 0,-54.269 5.9,-150.437 17.74,-288.539 11.83,-138.09 17.75,-209.328 17.75,-213.699"
         style="fill:#231f20;fill-opacity:1;fill-rule:nonzero;stroke:none"
         id="path29" /><path
         d="m 4259.55,518.711 c 0,-95.16 -66.21,-142.731 -198.65,-142.731 -48.36,0 -91.29,5.532 -128.85,16.59 l 13.52,60.559 c 43.2,-14.918 84.22,-22.367 123.04,-22.367 87.43,0 131.16,24.687 131.16,74.058 0,24.942 -11.33,46.289 -33.95,64.032 -15.18,11.82 -45,27.636 -89.49,47.449 -46.82,20.828 -79.59,39.98 -98.36,57.469 -25.98,24.171 -38.97,54.519 -38.97,91.031 0,38.058 13.25,69.058 39.73,92.969 29.57,26.742 71.37,40.121 125.37,40.121 61.19,0 103.13,-3.993 125.74,-11.95 l -9.25,-61.339 c -39.09,12.339 -80.61,18.519 -124.59,18.519 -66.1,0 -99.14,-22.121 -99.14,-66.351 0,-21.348 9.51,-39.219 28.55,-53.629 12.34,-9 39.59,-22.621 81.78,-40.871 48.08,-20.84 82.79,-40.649 104.14,-59.418 32.15,-28.293 48.22,-63.012 48.22,-104.141"
         style="fill:#231f20;fill-opacity:1;fill-rule:nonzero;stroke:none"
         id="path31" /><path
         d="m 4702.73,890.949 -1.93,-54.39 c -50.92,2.562 -103.51,3.851 -157.77,3.851 -0.53,-49.371 -0.76,-111.988 -0.76,-187.851 0,-83.84 1.27,-171.789 3.84,-263.848 h -70.58 c 3.08,87.687 4.63,175.641 4.63,263.848 0,74.832 -0.78,137.453 -2.33,187.851 -38.06,0 -91.54,-1.539 -160.47,-4.629 l 1.94,55.168 h 383.43"
         style="fill:#231f20;fill-opacity:1;fill-rule:nonzero;stroke:none"
         id="path33" /><path
         d="m 5034.98,601.641 c -60.45,150.949 -90.64,231.179 -90.64,240.699 h -4.26 c 0,-7.969 -31.23,-88.211 -93.73,-240.699 z m 147.73,-212.93 h -81.38 c 0,17.23 -16.21,71.371 -48.62,162.398 h -222.55 c -31.9,-89.75 -47.84,-143.879 -47.84,-162.398 h -77.93 c 0,9.508 33.19,91.738 99.54,246.68 66.34,154.937 99.51,240.129 99.51,255.558 h 89.49 c 0,-15.179 31.64,-99.129 94.9,-251.89 63.26,-152.75 94.88,-236.207 94.88,-250.348"
         style="fill:#231f20;fill-opacity:1;fill-rule:nonzero;stroke:none"
         id="path35" /><path
         d="m 5594.02,640.609 c 0,57.09 -18.2,104.782 -54.59,143.102 -36.38,38.309 -92.63,57.48 -168.75,57.48 -10.8,0 -25.6,-1.3 -44.35,-3.871 2.05,-59.922 3.08,-121.5 3.08,-184.761 0,-69.43 1.41,-139.899 4.24,-211.387 20.57,-4.121 40.37,-6.172 59.4,-6.172 67.89,0 118.36,20.121 151.4,60.371 33.05,40.25 49.57,88.649 49.57,145.238 z m 67.13,17.352 c 0,-73.039 -23.34,-137.07 -70.02,-192.102 -46.68,-55.039 -111.03,-82.55 -193.06,-82.55 -26.76,0 -71.37,1.812 -133.85,5.402 3.85,79.719 5.78,167.668 5.78,263.848 0,90.523 -1.93,169.98 -5.78,238.39 h 42.42 c 10.29,0 25.98,0.383 47.07,1.16 21.08,0.762 34.96,1.153 41.66,1.153 90.76,0 157.77,-22.313 200.98,-66.922 43.2,-44.621 64.8,-100.75 64.8,-168.379"
         style="fill:#231f20;fill-opacity:1;fill-rule:nonzero;stroke:none"
         id="path37" /><path
         d="m 6097.91,890.949 -1.93,-54.39 c -50.92,2.562 -103.52,3.851 -157.78,3.851 -0.5,-49.371 -0.76,-111.988 -0.76,-187.851 0,-83.84 1.29,-171.789 3.85,-263.848 h -70.59 c 3.09,87.687 4.63,175.641 4.63,263.848 0,74.832 -0.76,137.453 -2.3,187.851 -38.07,0 -91.57,-1.539 -160.47,-4.629 l 1.91,55.168 h 383.44"
         style="fill:#231f20;fill-opacity:1;fill-rule:nonzero;stroke:none"
         id="path39" /><path
         d="m 1006.34,2989.09 h 601.87 c 254.48,0 228.34,-445.12 14.7,-445.12 H 1006.34 V 2415.1 l 614.96,-0.12 c 394.59,-0.02 427.17,702.97 -12.97,702.99 l -601.99,-0.02 v -128.86"
         style="fill:#b90f22;fill-opacity:1;fill-rule:evenodd;stroke:none"
         id="path41" /><path
         d="M 2611.71,3516.27 V 1231.95 l -279.38,-0.02 v 550.61 l -134.24,27.32 v -706.77 h 553.18 v 2284.62 l 454.44,-0.07 444.47,-1546.55 55.89,300.68 -397.56,1374.5 h -696.8"
         style="fill:#b62234;fill-opacity:1;fill-rule:evenodd;stroke:none"
         id="path43" /><path
         d="M 2611.71,3516.27 V 1231.95 l -279.38,-0.02 v 550.61 l -134.24,27.32 v -706.77 h 553.18 v 2284.62 l 454.44,-0.07 444.47,-1546.55 55.89,300.68 -397.56,1374.5 h -696.8"
         style="fill:#b90f22;fill-opacity:1;fill-rule:nonzero;stroke:none"
         id="path45" /><path
         d="m 4065.92,3388.11 425.1,-0.47 444.47,-1566.08 81.35,226.49 -414.89,1468.21 h -569.43 l 33.4,-128.15"
         style="fill:#b62234;fill-opacity:1;fill-rule:evenodd;stroke:none"
         id="path47" /><path
         d="m 4065.92,3388.11 425.1,-0.47 444.47,-1566.08 81.35,226.49 -414.89,1468.21 h -569.43 l 33.4,-128.15"
         style="fill:#b90f22;fill-opacity:1;fill-rule:nonzero;stroke:none"
         id="path49" /><path
         d="m 457.23,3387.41 1155.16,0.3 c 793.88,0.22 796.33,-1245.94 0,-1244.21 l -736.206,-1.73 -0.325,-909.82 H 591.355 l 0.098,909.82 H 457.23 V 1103.09 h 549.11 v 909.82 h 606.05 c 984.23,0 978.63,1503.35 0,1503.35 H 591.355 v 262.41 H 5146.66 l -105.43,-391.26 h 138.3 l 150.49,527.15 H 457.23 v -527.15"
         style="fill:#b62234;fill-opacity:1;fill-rule:evenodd;stroke:none"
         id="path51" /><path
         d="m 457.23,3387.41 1155.16,0.3 c 793.88,0.22 796.33,-1244.16 0,-1244.21 -184.06,-0.02 -736.206,-1.73 -736.206,-1.73 l -0.325,-909.82 H 591.355 l 0.098,909.82 H 457.23 V 1103.09 h 549.11 v 909.82 h 606.05 c 984.23,0 978.63,1503.35 0,1503.35 H 591.355 v 262.41 H 5146.66 l -105.43,-391.26 h 138.3 l 150.49,527.15 H 457.23 v -527.15"
         style="fill:#b90f22;fill-opacity:1;fill-rule:nonzero;stroke:none"
         id="path53" /><path
         d="M 4284.69,2590.82 3896.27,1231.93 H 3530.9 l -112.58,339.73 -134.22,27.34 134.22,-495.91 h 589.79 l 353.86,1261.25 -77.28,226.48"
         style="fill:#b62234;fill-opacity:1;fill-rule:evenodd;stroke:none"
         id="path55" /><path
         d="M 4284.69,2590.82 3896.27,1231.93 H 3530.9 l -112.58,339.73 -134.22,27.34 134.22,-495.91 h 589.79 l 353.86,1261.25 -77.28,226.48"
         style="fill:#b90f22;fill-opacity:1;fill-rule:nonzero;stroke:none"
         id="path57" /><path
         d="m 5499.26,3778.67 h 419.65 L 5199.86,1235.84 h -378.28 l -20.33,74.2 -150.49,23.44 65.06,-230.39 h 597.93 l 789.08,2811.48 h -573.51 l -30.06,-135.9"
         style="fill:#b62234;fill-opacity:1;fill-rule:evenodd;stroke:none"
         id="path59" /><path
         d="m 5499.26,3778.67 h 419.65 L 5199.86,1235.84 h -378.28 l -20.33,74.2 -150.49,23.44 65.06,-230.39 h 597.93 l 789.08,2811.48 h -573.51 l -30.06,-135.9"
         style="fill:#b90f22;fill-opacity:1;fill-rule:nonzero;stroke:none"
         id="path61" /></g></g></svg>
