<?xml version="1.0" encoding="UTF-8" standalone="no"?>
<!-- Created with Inkscape (http://www.inkscape.org/) -->

<svg
   width="41.331104mm"
   height="12.793403mm"
   viewBox="0 0 41.331105 12.793407"
   version="1.1"
   id="svg5"
   inkscape:version="1.1 (c68e22c387, 2021-05-23)"
   sodipodi:docname="PTW_Logo_Beschriftet.svg"
   xmlns:inkscape="http://www.inkscape.org/namespaces/inkscape"
   xmlns:sodipodi="http://sodipodi.sourceforge.net/DTD/sodipodi-0.dtd"
   xmlns="http://www.w3.org/2000/svg"
   xmlns:svg="http://www.w3.org/2000/svg">
  <sodipodi:namedview
     id="namedview7"
     pagecolor="#ffffff"
     bordercolor="#666666"
     borderopacity="1.0"
     inkscape:pageshadow="2"
     inkscape:pageopacity="0.0"
     inkscape:pagecheckerboard="0"
     inkscape:document-units="mm"
     showgrid="false"
     fit-margin-top="0.9"
     fit-margin-left="4.15466"
     fit-margin-right="0.85"
     fit-margin-bottom="0.9"
     inkscape:zoom="4.2732911"
     inkscape:cx="76.638823"
     inkscape:cy="13.455671"
     inkscape:window-width="1536"
     inkscape:window-height="841"
     inkscape:window-x="1432"
     inkscape:window-y="-8"
     inkscape:window-maximized="1"
     inkscape:current-layer="g836" />
  <defs
     id="defs2">
    <clipPath
       clipPathUnits="userSpaceOnUse"
       id="clipPath840">
      <path
         d="M 0,155.906 H 240.945 V 0 H 0 Z"
         id="path838" />
    </clipPath>
    <clipPath
       clipPathUnits="userSpaceOnUse"
       id="clipPath856">
      <path
         d="m 144.51,95.301 h 90.184 v 35.064 H 144.51 Z"
         id="path854" />
    </clipPath>
    <clipPath
       clipPathUnits="userSpaceOnUse"
       id="clipPath868">
      <path
         d="M 134.773,13.436 H 272.148 V 68.561 H 134.773 Z"
         id="path866" />
    </clipPath>
    <clipPath
       clipPathUnits="userSpaceOnUse"
       id="clipPath930">
      <path
         d="m 144.51,95.301 h 90.184 v 35.064 H 144.51 Z"
         id="path928" />
    </clipPath>
    <clipPath
       clipPathUnits="userSpaceOnUse"
       id="clipPath978">
      <path
         d="m 144.51,95.301 h 90.184 v 35.064 H 144.51 Z"
         id="path976" />
    </clipPath>
  </defs>
  <g
     inkscape:label="Ebene 1"
     inkscape:groupmode="layer"
     id="layer1"
     transform="translate(-66.305413,-60.989493)">
    <g
       id="g830"
       inkscape:label="21-10-09_tec_fehn"
       transform="matrix(0.35277777,0,0,-0.35277777,58.740593,93.510766)">
      <g
         id="g832">
        <g
           id="g834">
          <g
             id="g836"
             clip-path="url(#clipPath840)">
            <text
               transform="scale(1,-1)"
               style="font-variant:normal;font-weight:normal;font-stretch:normal;font-size:6px;font-family:FrontPage;-inkscape-font-specification:FrontPage;writing-mode:lr-tb;fill:#231f20;fill-opacity:1;fill-rule:nonzero;stroke:none"
               id="text846"
               x="33.184574"
               y="-66.338707"><tspan
                 x="33.184574 34.970776 38.552776 41.032574 43.338375 44.899574 47.194576 50.756775 52.958775 54.458775 56.739975 60.242176 62.402176 63.902176 67.234573 69.508575 73.146973 76.743973 80.256973 83.638573 85.944374 87.459976 91.059975 94.641975 97.026978 102.21098 105.47918 109.01918 112.31018 115.87598 119.13457 124.35998 127.61798 131.19098 133.58678 135.19057"
                 y="-66.338707"
                 sodipodi:role="line"
                 id="tspan842">Institut für Produktionsmanagement,</tspan><tspan
                 x="33.184574 36.136574 39.420975 42.126976 45.651375 49.222576 52.847176 54.374775 58.013176 61.561577 63.085575 66.217575 67.717575 71.219772 74.800575 78.280579 79.780579 85.52858 88.786575 91.085175 94.44278 97.326378 100.60118 104.12318 107.65898 112.84538 116.14538 118.56578 121.27177 124.80698 126.30698 129.88718 133.14517"
                 y="-59.738705"
                 sodipodi:role="line"
                 id="tspan844">Technologie und Werkzeugmaschinen</tspan></text>
            <g
               id="g994"
               transform="translate(33.240375,89.635106)">
              <path
                 d="m 0,0 28.538,-0.008 -0.907,-3.216 -0.968,0.001 0.65,2.277 -26.369,0.013 0.001,-1.559 5.848,0.008 c 5.984,-0.03 5.988,-9.179 0.008,-9.165 H 3.523 V -16.9 H 0.016 l -0.018,6.189 0.92,-10e-4 0.007,-5.262 1.651,-0.004 -0.01,5.247 4.24,0.013 c 4.699,0.004 4.697,7.297 -0.013,7.305 H 0 Z"
                 style="fill:#b90f22;fill-opacity:1;fill-rule:nonzero;stroke:none"
                 id="path996" />
            </g>
            <g
               id="g998"
               transform="translate(33.240375,89.635106)">
              <path
                 d="m 0,0 28.538,-0.008 -0.907,-3.216 -0.968,0.001 0.65,2.277 -26.369,0.013 0.001,-1.559 5.848,0.008 c 5.984,-0.03 5.988,-9.179 0.008,-9.165 H 3.523 V -16.9 H 0.016 l -0.018,6.189 0.92,-10e-4 0.007,-5.262 1.651,-0.004 -0.01,5.247 4.24,0.013 c 4.699,0.004 4.697,7.297 -0.013,7.305 H 0 Z"
                 style="fill:none;stroke:none;stroke-width:0.108;stroke-linecap:butt;stroke-linejoin:miter;stroke-miterlimit:22.926;stroke-dasharray:none;stroke-opacity:1"
                 id="path1000" />
            </g>
            <g
               id="g1002"
               transform="matrix(1,0,0,0.99537348,62.758475,89.647386)">
              <path
                 d="m 0,-0.01540389 3.4,9.9999e-4 -4.894,-16.9670001 h -3.301 l -0.471,1.591 0.974,-0.208 0.118,-0.408 h 1.987 l 4.348,15.0520001 h -2.405 z"
                 style="fill:#b90f22;fill-opacity:1;fill-rule:nonzero;stroke:none"
                 id="path1004" />
            </g>
            <g
               id="g1006"
               transform="matrix(1.0022975,0,0,1,49.034533,86.268106)">
              <path
                 d="m 0,0 -2.358,-0.011 -0.007,-13.521 -3.355,10e-4 -0.007,4.421 0.893,-0.171 0.008,-3.279 h 1.545 L -3.295,0.927 h 3.041 z"
                 style="fill:#b90f22;fill-opacity:1;fill-rule:nonzero;stroke:none"
                 id="path1008" />
            </g>
            <g
               id="g1010"
               transform="translate(49.021375,86.268106)">
              <path
                 d="m 0,0 -2.358,-0.011 -0.007,-13.521 -3.355,10e-4 -0.007,4.421 0.893,-0.171 0.008,-3.279 h 1.545 L -3.295,0.927 h 3.041 z"
                 style="fill:none;stroke:none;stroke-width:0.108;stroke-linecap:butt;stroke-linejoin:miter;stroke-miterlimit:22.926;stroke-dasharray:none;stroke-opacity:1"
                 id="path1012" />
            </g>
            <g
               id="g1014"
               transform="matrix(1,0,0,0.99689422,56.144575,80.504456)">
              <path
                 d="m 0,0 -2.244,-7.79 -3.301,0.001 -0.911,3.156 0.974,-0.188 0.558,-1.993 h 1.987 l 2.448,8.503 z"
                 style="fill:#b90f22;fill-opacity:1;fill-rule:nonzero;stroke:none"
                 id="path1016" />
            </g>
            <g
               id="g1018"
               transform="translate(59.727875,78.856706)">
              <path
                 d="M 0,0 -2.399,8.37 -5.7,8.369 -5.426,7.394 h 2.335 l 2.621,-9.103 z"
                 style="fill:#b90f22;fill-opacity:1;fill-rule:nonzero;stroke:none"
                 id="path1020" />
            </g>
            <g
               id="g1022"
               transform="translate(52.174979,78.825256)">
              <path
                 d="M 0,0 -2.399,8.37 -3.435,8.369 -0.47,-1.709 Z"
                 style="fill:#b90f22;fill-opacity:1;fill-rule:nonzero;stroke:none"
                 id="path1024" />
            </g>
            <g
               id="g1026"
               transform="matrix(0.99983604,0,0,1,36.552174,83.886996)">
              <path
                 d="m 0,0 v 0.93 h 3.464 c 2.724,-0.003 2.727,-4.463 0,-4.463 h -3.473 v 0.924 h 3.473 c 1.5,0.003 1.51,2.612 0,2.615 z"
                 style="fill:#b90f22;fill-opacity:1;fill-rule:nonzero;stroke:none"
                 id="path1028" />
            </g>
            <g
               id="g1030"
               transform="translate(36.552175,83.886846)">
              <path
                 d="m 0,0 v 0.93 h 3.464 c 2.724,-0.003 2.727,-4.463 0,-4.463 h -3.473 v 0.924 h 3.473 c 1.5,0.003 1.51,2.612 0,2.615 z"
                 style="fill:none;stroke:#b90f22;stroke-width:0.108;stroke-linecap:butt;stroke-linejoin:miter;stroke-miterlimit:22.926;stroke-dasharray:none;stroke-opacity:1"
                 id="path1032" />
            </g>
          </g>
        </g>
      </g>
    </g>
  </g>
</svg>
